<svg xmlns="http://www.w3.org/2000/svg" viewBox="0 0 900 520" fill="none">
  <defs>
    <linearGradient id="bg" x1="0" y1="0" x2="900" y2="520" gradientUnits="userSpaceOnUse">
      <stop offset="0" stop-color="#0d1117"/>
      <stop offset="1" stop-color="#161b22"/>
    </linearGradient>
    <linearGradient id="accent" x1="0" y1="0" x2="1" y2="1">
      <stop offset="0" stop-color="#58a6ff"/>
      <stop offset="1" stop-color="#1f6feb"/>
    </linearGradient>
    <linearGradient id="green" x1="0" y1="0" x2="1" y2="1">
      <stop offset="0" stop-color="#3fb950"/>
      <stop offset="1" stop-color="#238636"/>
    </linearGradient>
    <linearGradient id="purple" x1="0" y1="0" x2="1" y2="1">
      <stop offset="0" stop-color="#bc8cff"/>
      <stop offset="1" stop-color="#8b5cf6"/>
    </linearGradient>
    <linearGradient id="orange" x1="0" y1="0" x2="1" y2="1">
      <stop offset="0" stop-color="#f0883e"/>
      <stop offset="1" stop-color="#d29922"/>
    </linearGradient>
    <filter id="glow">
      <feGaussianBlur stdDeviation="3" result="blur"/>
      <feMerge><feMergeNode in="blur"/><feMergeNode in="SourceGraphic"/></feMerge>
    </filter>
  </defs>

  <rect width="900" height="520" rx="12" fill="url(#bg)"/>

  <!-- Title -->
  <text x="450" y="40" text-anchor="middle" font-family="system-ui, -apple-system, sans-serif" font-size="18" font-weight="700" fill="#e6edf3">Space Data Module Architecture</text>

  <!-- Source Layer -->
  <rect x="30" y="70" width="180" height="170" rx="10" fill="#161b22" stroke="#30363d" stroke-width="1.5"/>
  <text x="120" y="95" text-anchor="middle" font-family="system-ui, sans-serif" font-size="13" font-weight="600" fill="#e6edf3">Source</text>

  <rect x="50" y="110" width="140" height="36" rx="6" fill="#1c2128" stroke="#58a6ff" stroke-width="1"/>
  <text x="120" y="133" text-anchor="middle" font-family="monospace" font-size="11" fill="#58a6ff">module.c / .cpp</text>

  <rect x="50" y="155" width="140" height="36" rx="6" fill="#1c2128" stroke="#f0883e" stroke-width="1"/>
  <text x="120" y="178" text-anchor="middle" font-family="monospace" font-size="11" fill="#f0883e">manifest.json</text>

  <rect x="50" y="200" width="140" height="28" rx="6" fill="#1c2128" stroke="#3fb950" stroke-width="1"/>
  <text x="120" y="219" text-anchor="middle" font-family="monospace" font-size="10" fill="#3fb950">spacedatastandards.org</text>

  <!-- Arrow: Source -> SDK -->
  <line x1="210" y1="155" x2="260" y2="155" stroke="#484f58" stroke-width="2" marker-end="url(#arrowGray)"/>

  <!-- SDK Core -->
  <rect x="265" y="70" width="370" height="280" rx="10" fill="#161b22" stroke="#58a6ff" stroke-width="1.5"/>
  <rect x="265" y="70" width="370" height="30" rx="10" fill="#1f6feb" fill-opacity="0.15"/>
  <text x="450" y="91" text-anchor="middle" font-family="system-ui, sans-serif" font-size="13" font-weight="700" fill="#58a6ff">space-data-module-sdk</text>

  <!-- Compile -->
  <rect x="285" y="115" width="150" height="50" rx="8" fill="#1c2128" stroke="#f0883e" stroke-width="1"/>
  <text x="360" y="136" text-anchor="middle" font-family="system-ui, sans-serif" font-size="11" font-weight="600" fill="#f0883e">Compile</text>
  <text x="360" y="153" text-anchor="middle" font-family="monospace" font-size="9" fill="#8b949e">emcc / em++ -> .wasm</text>

  <!-- Validate -->
  <rect x="465" y="115" width="150" height="50" rx="8" fill="#1c2128" stroke="#3fb950" stroke-width="1"/>
  <text x="540" y="136" text-anchor="middle" font-family="system-ui, sans-serif" font-size="11" font-weight="600" fill="#3fb950">Validate</text>
  <text x="540" y="153" text-anchor="middle" font-family="monospace" font-size="9" fill="#8b949e">compliance + standards</text>

  <!-- Arrow: Compile -> Validate -->
  <line x1="435" y1="140" x2="465" y2="140" stroke="#484f58" stroke-width="1.5" marker-end="url(#arrowGray)"/>

  <!-- Embed Manifest -->
  <rect x="285" y="185" width="150" height="50" rx="8" fill="#1c2128" stroke="#bc8cff" stroke-width="1"/>
  <text x="360" y="206" text-anchor="middle" font-family="system-ui, sans-serif" font-size="11" font-weight="600" fill="#bc8cff">Embed Manifest</text>
  <text x="360" y="223" text-anchor="middle" font-family="monospace" font-size="9" fill="#8b949e">FlatBuffers binary ABI</text>

  <!-- Sign -->
  <rect x="465" y="185" width="150" height="50" rx="8" fill="#1c2128" stroke="#d29922" stroke-width="1"/>
  <text x="540" y="206" text-anchor="middle" font-family="system-ui, sans-serif" font-size="11" font-weight="600" fill="#d29922">Sign</text>
  <text x="540" y="223" text-anchor="middle" font-family="monospace" font-size="9" fill="#8b949e">HD wallet + secp256k1</text>

  <!-- Encrypt -->
  <rect x="375" y="255" width="150" height="50" rx="8" fill="#1c2128" stroke="#f778ba" stroke-width="1"/>
  <text x="450" y="276" text-anchor="middle" font-family="system-ui, sans-serif" font-size="11" font-weight="600" fill="#f778ba">Encrypt</text>
  <text x="450" y="293" text-anchor="middle" font-family="monospace" font-size="9" fill="#8b949e">X25519 + AES-256-GCM</text>

  <!-- Internal arrows -->
  <line x1="360" y1="165" x2="360" y2="185" stroke="#484f58" stroke-width="1.5" marker-end="url(#arrowGray)"/>
  <line x1="540" y1="165" x2="540" y2="185" stroke="#484f58" stroke-width="1.5" marker-end="url(#arrowGray)"/>
  <line x1="435" y1="210" x2="465" y2="210" stroke="#484f58" stroke-width="1.5" marker-end="url(#arrowGray)"/>
  <path d="M 450 235 L 450 255" stroke="#484f58" stroke-width="1.5" marker-end="url(#arrowGray)"/>

  <!-- Arrow: SDK -> Output -->
  <line x1="635" y1="210" x2="685" y2="210" stroke="#484f58" stroke-width="2" marker-end="url(#arrowGray)"/>

  <!-- Output: Protected Module Package -->
  <rect x="690" y="70" width="180" height="280" rx="10" fill="#161b22" stroke="#30363d" stroke-width="1.5"/>
  <text x="780" y="95" text-anchor="middle" font-family="system-ui, sans-serif" font-size="13" font-weight="600" fill="#e6edf3">Protected Package</text>

  <rect x="710" y="110" width="140" height="30" rx="6" fill="#1c2128" stroke="#bc8cff" stroke-width="1"/>
  <text x="780" y="130" text-anchor="middle" font-family="monospace" font-size="10" fill="#bc8cff">manifest.fb</text>

  <rect x="710" y="150" width="140" height="30" rx="6" fill="#1c2128" stroke="#58a6ff" stroke-width="1"/>
  <text x="780" y="170" text-anchor="middle" font-family="monospace" font-size="10" fill="#58a6ff">module.wasm</text>

  <rect x="710" y="190" width="140" height="30" rx="6" fill="#1c2128" stroke="#d29922" stroke-width="1"/>
  <text x="780" y="210" text-anchor="middle" font-family="monospace" font-size="10" fill="#d29922">authorization.sig</text>

  <rect x="710" y="230" width="140" height="30" rx="6" fill="#1c2128" stroke="#f778ba" stroke-width="1"/>
  <text x="780" y="250" text-anchor="middle" font-family="monospace" font-size="10" fill="#f778ba">encrypted envelope</text>

  <rect x="710" y="280" width="140" height="30" rx="6" fill="#1c2128" stroke="#3fb950" stroke-width="1"/>
  <text x="780" y="300" text-anchor="middle" font-family="monospace" font-size="10" fill="#3fb950">compliance report</text>

  <!-- Deployment targets -->
  <rect x="30" y="380" width="840" height="120" rx="10" fill="#161b22" stroke="#30363d" stroke-width="1.5"/>
  <rect x="30" y="380" width="840" height="30" rx="10" fill="#238636" fill-opacity="0.1"/>
  <text x="450" y="401" text-anchor="middle" font-family="system-ui, sans-serif" font-size="13" font-weight="700" fill="#3fb950">Deployment Targets</text>

  <rect x="54" y="420" width="180" height="60" rx="8" fill="#1c2128" stroke="#3fb950" stroke-width="1"/>
  <text x="144" y="447" text-anchor="middle" font-family="system-ui, sans-serif" font-size="12" font-weight="600" fill="#e6edf3">Mission Systems</text>
  <text x="144" y="465" text-anchor="middle" font-family="system-ui, sans-serif" font-size="10" fill="#8b949e">Analysis / Planning / Ops</text>

  <rect x="258" y="420" width="180" height="60" rx="8" fill="#1c2128" stroke="#3fb950" stroke-width="1"/>
  <text x="348" y="447" text-anchor="middle" font-family="system-ui, sans-serif" font-size="12" font-weight="600" fill="#e6edf3">SDN Nodes</text>
  <text x="348" y="465" text-anchor="middle" font-family="system-ui, sans-serif" font-size="10" fill="#8b949e">Peer-to-Peer Data Network</text>

  <rect x="462" y="420" width="180" height="60" rx="8" fill="#1c2128" stroke="#3fb950" stroke-width="1"/>
  <text x="552" y="447" text-anchor="middle" font-family="system-ui, sans-serif" font-size="12" font-weight="600" fill="#e6edf3">Edge Runtimes</text>
  <text x="552" y="465" text-anchor="middle" font-family="system-ui, sans-serif" font-size="10" fill="#8b949e">Satellite / Ground Station</text>

  <rect x="666" y="420" width="180" height="60" rx="8" fill="#1c2128" stroke="#3fb950" stroke-width="1"/>
  <text x="756" y="447" text-anchor="middle" font-family="system-ui, sans-serif" font-size="12" font-weight="600" fill="#e6edf3">Browser</text>
  <text x="756" y="465" text-anchor="middle" font-family="system-ui, sans-serif" font-size="10" fill="#8b949e">Module Lab / WebAssembly</text>

  <!-- Arrows down to deployment -->
  <line x1="450" y1="350" x2="450" y2="380" stroke="#484f58" stroke-width="2" marker-end="url(#arrowGray)"/>

  <!-- Arrow markers -->
  <defs>
    <marker id="arrowGray" viewBox="0 0 10 10" refX="9" refY="5" markerWidth="6" markerHeight="6" orient="auto-start-reverse">
      <path d="M 0 0 L 10 5 L 0 10 z" fill="#484f58"/>
    </marker>
  </defs>
</svg>
