<svg xmlns="http://www.w3.org/2000/svg" viewBox="0 0 900 440" fill="none">
  <defs>
    <linearGradient id="bg2" x1="0" y1="0" x2="900" y2="440" gradientUnits="userSpaceOnUse">
      <stop offset="0" stop-color="#0d1117"/>
      <stop offset="1" stop-color="#161b22"/>
    </linearGradient>
    <marker id="arrow2" viewBox="0 0 10 10" refX="9" refY="5" markerWidth="6" markerHeight="6" orient="auto-start-reverse">
      <path d="M 0 0 L 10 5 L 0 10 z" fill="#484f58"/>
    </marker>
    <marker id="arrowBlue" viewBox="0 0 10 10" refX="9" refY="5" markerWidth="6" markerHeight="6" orient="auto-start-reverse">
      <path d="M 0 0 L 10 5 L 0 10 z" fill="#58a6ff"/>
    </marker>
    <marker id="arrowGreen" viewBox="0 0 10 10" refX="9" refY="5" markerWidth="6" markerHeight="6" orient="auto-start-reverse">
      <path d="M 0 0 L 10 5 L 0 10 z" fill="#3fb950"/>
    </marker>
  </defs>

  <rect width="900" height="440" rx="12" fill="url(#bg2)"/>

  <!-- Title -->
  <text x="450" y="35" text-anchor="middle" font-family="system-ui, -apple-system, sans-serif" font-size="18" font-weight="700" fill="#e6edf3">Plugin Manifest &amp; Typed Streaming Ports</text>
  <text x="450" y="55" text-anchor="middle" font-family="system-ui, sans-serif" font-size="12" fill="#8b949e">Modules declare typed I/O ports that accept FlatBuffer schemas from spacedatastandards.org</text>

  <!-- Plugin Manifest Box -->
  <rect x="30" y="75" width="250" height="340" rx="10" fill="#161b22" stroke="#58a6ff" stroke-width="1.5"/>
  <rect x="30" y="75" width="250" height="30" rx="10" fill="#1f6feb" fill-opacity="0.15"/>
  <text x="155" y="96" text-anchor="middle" font-family="monospace" font-size="12" font-weight="700" fill="#58a6ff">PluginManifest</text>

  <!-- Manifest fields -->
  <text x="50" y="128" font-family="monospace" font-size="10" fill="#f0883e">pluginId</text>
  <text x="175" y="128" font-family="monospace" font-size="10" fill="#8b949e">"com.example.prop"</text>
  <text x="50" y="148" font-family="monospace" font-size="10" fill="#f0883e">name</text>
  <text x="175" y="148" font-family="monospace" font-size="10" fill="#8b949e">"Basic Propagator"</text>
  <text x="50" y="168" font-family="monospace" font-size="10" fill="#f0883e">version</text>
  <text x="175" y="168" font-family="monospace" font-size="10" fill="#8b949e">"0.1.0"</text>
  <text x="50" y="188" font-family="monospace" font-size="10" fill="#f0883e">pluginFamily</text>
  <text x="175" y="188" font-family="monospace" font-size="10" fill="#8b949e">"propagator"</text>
  <text x="50" y="208" font-family="monospace" font-size="10" fill="#f0883e">capabilities</text>
  <text x="175" y="208" font-family="monospace" font-size="10" fill="#8b949e">["clock"]</text>

  <line x1="45" y1="220" x2="265" y2="220" stroke="#30363d" stroke-width="1"/>

  <text x="50" y="240" font-family="monospace" font-size="10" fill="#bc8cff">methods[]</text>

  <!-- Method box -->
  <rect x="50" y="250" width="215" height="60" rx="6" fill="#1c2128" stroke="#bc8cff" stroke-width="1"/>
  <text x="65" y="270" font-family="monospace" font-size="10" fill="#bc8cff">methodId</text>
  <text x="155" y="270" font-family="monospace" font-size="10" fill="#8b949e">"propagate"</text>
  <text x="65" y="290" font-family="monospace" font-size="10" fill="#bc8cff">drainPolicy</text>
  <text x="155" y="290" font-family="monospace" font-size="10" fill="#8b949e">"drain-to-empty"</text>

  <!-- Method detail: center area -->
  <rect x="310" y="100" width="280" height="310" rx="10" fill="#161b22" stroke="#bc8cff" stroke-width="1.5"/>
  <rect x="310" y="100" width="280" height="30" rx="10" fill="#8b5cf6" fill-opacity="0.1"/>
  <text x="450" y="121" text-anchor="middle" font-family="system-ui, sans-serif" font-size="12" font-weight="700" fill="#bc8cff">Method: propagate</text>

  <!-- Input Port -->
  <text x="330" y="155" font-family="system-ui, sans-serif" font-size="11" font-weight="600" fill="#58a6ff">inputPorts</text>

  <rect x="330" y="165" width="240" height="80" rx="6" fill="#1c2128" stroke="#58a6ff" stroke-width="1"/>
  <text x="345" y="185" font-family="monospace" font-size="10" fill="#58a6ff">portId: "request"</text>
  <text x="345" y="205" font-family="monospace" font-size="10" fill="#8b949e">acceptedTypeSets:</text>
  <rect x="355" y="212" width="200" height="22" rx="4" fill="#0d1117" stroke="#3fb950" stroke-width="1"/>
  <text x="365" y="228" font-family="monospace" font-size="10" fill="#3fb950">OMM.fbs  $OMM</text>

  <!-- Output Port -->
  <text x="330" y="270" font-family="system-ui, sans-serif" font-size="11" font-weight="600" fill="#f0883e">outputPorts</text>

  <rect x="330" y="280" width="240" height="80" rx="6" fill="#1c2128" stroke="#f0883e" stroke-width="1"/>
  <text x="345" y="300" font-family="monospace" font-size="10" fill="#f0883e">portId: "state"</text>
  <text x="345" y="320" font-family="monospace" font-size="10" fill="#8b949e">acceptedTypeSets:</text>
  <rect x="355" y="327" width="200" height="22" rx="4" fill="#0d1117" stroke="#3fb950" stroke-width="1"/>
  <text x="365" y="343" font-family="monospace" font-size="10" fill="#3fb950">CAT.fbs  $CAT</text>

  <!-- Arrow: manifest -> method -->
  <line x1="265" y1="280" x2="310" y2="230" stroke="#484f58" stroke-width="1.5" marker-end="url(#arrow2)"/>

  <!-- Standards catalog -->
  <rect x="630" y="100" width="240" height="310" rx="10" fill="#161b22" stroke="#3fb950" stroke-width="1.5"/>
  <rect x="630" y="100" width="240" height="30" rx="10" fill="#238636" fill-opacity="0.1"/>
  <text x="750" y="121" text-anchor="middle" font-family="system-ui, sans-serif" font-size="12" font-weight="700" fill="#3fb950">spacedatastandards.org</text>

  <!-- Standard entries -->
  <rect x="650" y="145" width="200" height="35" rx="6" fill="#1c2128" stroke="#3fb950" stroke-width="1"/>
  <text x="660" y="162" font-family="monospace" font-size="10" font-weight="600" fill="#3fb950">OMM</text>
  <text x="700" y="162" font-family="monospace" font-size="9" fill="#8b949e">Orbit Mean-Elements Message</text>
  <text x="660" y="174" font-family="monospace" font-size="9" fill="#484f58">file_identifier: "$OMM"</text>

  <rect x="650" y="190" width="200" height="35" rx="6" fill="#1c2128" stroke="#3fb950" stroke-width="1"/>
  <text x="660" y="207" font-family="monospace" font-size="10" font-weight="600" fill="#3fb950">CAT</text>
  <text x="700" y="207" font-family="monospace" font-size="9" fill="#8b949e">Catalog (state vectors)</text>
  <text x="660" y="219" font-family="monospace" font-size="9" fill="#484f58">file_identifier: "$CAT"</text>

  <rect x="650" y="235" width="200" height="35" rx="6" fill="#1c2128" stroke="#3fb950" stroke-width="1"/>
  <text x="660" y="252" font-family="monospace" font-size="10" font-weight="600" fill="#3fb950">EPM</text>
  <text x="700" y="252" font-family="monospace" font-size="9" fill="#8b949e">Ephemeris Message</text>
  <text x="660" y="264" font-family="monospace" font-size="9" fill="#484f58">file_identifier: "$EPM"</text>

  <rect x="650" y="280" width="200" height="35" rx="6" fill="#1c2128" stroke="#3fb950" stroke-width="1"/>
  <text x="660" y="297" font-family="monospace" font-size="10" font-weight="600" fill="#3fb950">CDM</text>
  <text x="700" y="297" font-family="monospace" font-size="9" fill="#8b949e">Conjunction Data Message</text>
  <text x="660" y="309" font-family="monospace" font-size="9" fill="#484f58">file_identifier: "$CDM"</text>

  <rect x="650" y="325" width="200" height="35" rx="6" fill="#1c2128" stroke="#3fb950" stroke-width="1"/>
  <text x="660" y="342" font-family="monospace" font-size="10" font-weight="600" fill="#3fb950">PLD</text>
  <text x="700" y="342" font-family="monospace" font-size="9" fill="#8b949e">Planned Launch Data</text>
  <text x="660" y="354" font-family="monospace" font-size="9" fill="#484f58">file_identifier: "$PLD"</text>

  <text x="750" y="385" text-anchor="middle" font-family="monospace" font-size="10" fill="#484f58">... 40+ standards</text>

  <!-- Arrows: ports -> standards -->
  <line x1="555" y1="223" x2="650" y2="162" stroke="#3fb950" stroke-width="1.5" stroke-dasharray="4 3" marker-end="url(#arrowGreen)"/>
  <line x1="555" y1="338" x2="650" y2="297" stroke="#3fb950" stroke-width="1.5" stroke-dasharray="4 3" marker-end="url(#arrowGreen)"/>
</svg>
